<svg width="600" height="400" viewBox="0 0 600 400" fill="none" xmlns="http://www.w3.org/2000/svg">
  <defs>
    <linearGradient id="bgGradient" x1="0%" y1="0%" x2="100%" y2="100%">
      <stop offset="0%" style="stop-color:#0B0F14;stop-opacity:1" />
      <stop offset="100%" style="stop-color:#121820;stop-opacity:1" />
    </linearGradient>
  </defs>
  
  <!-- Background -->
  <rect width="600" height="400" fill="url(#bgGradient)"/>
  
  <!-- Header -->
  <rect x="20" y="20" width="560" height="40" rx="8" fill="#1D2630" stroke="#3AA0FF" stroke-width="1"/>
  <text x="30" y="35" fill="#E6EEF7" font-family="IBM Plex Sans" font-size="14" font-weight="600">GUILD Queue - Normalized RFQs</text>
  <text x="30" y="50" fill="#9AA7B2" font-family="IBM Plex Sans" font-size="10">SAM.gov & DIBBS Integration</text>
  
  <!-- Queue Items -->
  <!-- Item 1 -->
  <rect x="20" y="80" width="560" height="50" rx="6" fill="#121820" stroke="#1D2630" stroke-width="1"/>
  <rect x="30" y="90" width="8" height="8" rx="4" fill="#3AA0FF"/>
  <text x="50" y="100" fill="#E6EEF7" font-family="IBM Plex Sans" font-size="12" font-weight="500">RFQ-2024-001 | Aircraft Components</text>
  <text x="50" y="115" fill="#9AA7B2" font-family="IBM Plex Sans" font-size="10">SAM.gov | Due: 2024-02-15 | Status: Routing</text>
  <rect x="500" y="95" width="60" height="20" rx="4" fill="#6BA07A" opacity="0.2"/>
  <text x="530" y="107" text-anchor="middle" fill="#6BA07A" font-family="IBM Plex Sans" font-size="9">Active</text>
  
  <!-- Item 2 -->
  <rect x="20" y="140" width="560" height="50" rx="6" fill="#121820" stroke="#1D2630" stroke-width="1"/>
  <rect x="30" y="150" width="8" height="8" rx="4" fill="#6BA07A"/>
  <text x="50" y="160" fill="#E6EEF7" font-family="IBM Plex Sans" font-size="12" font-weight="500">RFQ-2024-002 | Electronic Systems</text>
  <text x="50" y="175" fill="#9AA7B2" font-family="IBM Plex Sans" font-size="10">DIBBS | Due: 2024-02-20 | Status: Quoted</text>
  <rect x="500" y="155" width="60" height="20" rx="4" fill="#3AA0FF" opacity="0.2"/>
  <text x="530" y="167" text-anchor="middle" fill="#3AA0FF" font-family="IBM Plex Sans" font-size="9">Quoted</text>
  
  <!-- Item 3 -->
  <rect x="20" y="200" width="560" height="50" rx="6" fill="#121820" stroke="#1D2630" stroke-width="1"/>
  <rect x="30" y="210" width="8" height="8" rx="4" fill="#3AA0FF"/>
  <text x="50" y="220" fill="#E6EEF7" font-family="IBM Plex Sans" font-size="12" font-weight="500">RFQ-2024-003 | Logistics Services</text>
  <text x="50" y="235" fill="#9AA7B2" font-family="IBM Plex Sans" font-size="10">SAM.gov | Due: 2024-02-25 | Status: Pending</text>
  <rect x="500" y="215" width="60" height="20" rx="4" fill="#9AA7B2" opacity="0.2"/>
  <text x="530" y="227" text-anchor="middle" fill="#9AA7B2" font-family="IBM Plex Sans" font-size="9">Pending</text>
  
  <!-- Item 4 -->
  <rect x="20" y="260" width="560" height="50" rx="6" fill="#121820" stroke="#1D2630" stroke-width="1"/>
  <rect x="30" y="270" width="8" height="8" rx="4" fill="#6BA07A"/>
  <text x="50" y="280" fill="#E6EEF7" font-family="IBM Plex Sans" font-size="12" font-weight="500">RFQ-2024-004 | Manufacturing Parts</text>
  <text x="50" y="295" fill="#9AA7B2" font-family="IBM Plex Sans" font-size="10">DIBBS | Due: 2024-03-01 | Status: Delivered</text>
  <rect x="500" y="275" width="60" height="20" rx="4" fill="#6BA07A" opacity="0.2"/>
  <text x="530" y="287" text-anchor="middle" fill="#6BA07A" font-family="IBM Plex Sans" font-size="9">Delivered</text>
  
  <!-- Partner Routing Panel -->
  <rect x="20" y="330" width="280" height="50" rx="6" fill="#121820" stroke="#1D2630" stroke-width="1"/>
  <text x="30" y="345" fill="#E6EEF7" font-family="IBM Plex Sans" font-size="12" font-weight="600">Partner Routing</text>
  <text x="30" y="360" fill="#9AA7B2" font-family="IBM Plex Sans" font-size="10">Auto-assigned to qualified partners</text>
  <text x="30" y="375" fill="#9AA7B2" font-family="IBM Plex Sans" font-size="10">Based on capability & capacity</text>
  
  <!-- Status Legend -->
  <rect x="320" y="330" width="260" height="50" rx="6" fill="#121820" stroke="#1D2630" stroke-width="1"/>
  <text x="330" y="345" fill="#E6EEF7" font-family="IBM Plex Sans" font-size="12" font-weight="600">Status Legend</text>
  <rect x="330" y="350" width="8" height="8" rx="4" fill="#3AA0FF"/>
  <text x="345" y="358" fill="#9AA7B2" font-family="IBM Plex Sans" font-size="9">Active</text>
  <rect x="400" y="350" width="8" height="8" rx="4" fill="#6BA07A"/>
  <text x="415" y="358" fill="#9AA7B2" font-family="IBM Plex Sans" font-size="9">Completed</text>
  <rect x="480" y="350" width="8" height="8" rx="4" fill="#9AA7B2"/>
  <text x="495" y="358" fill="#9AA7B2" font-family="IBM Plex Sans" font-size="9">Pending</text>
</svg>
